#!OML:ASF F:\VICON\USERDATA\INSTALL\Justin_Nancy\Justin_Nancy.ASF
:FULLY-SPECIFIED
:DEGREES
310
root 0.0488918 17.2474 7.19602 0.382624 -0.076321 7.05814
lowerback 6.94529 -0.509756 -7.42611
upperback -0.131444 -1.28023 0.112881
thorax -3.87781 -0.488816 4.42253
lowerneck -16.6575 -4.9213 -9.47259
upperneck 21.7407 -6.2042 7.63348
head 10.2351 -2.78669 3.42283
rclavicle -4.67144e-015 1.43125e-014
rhumerus -34.9048 -19.3177 -76.7289
rradius 29.6774
rwrist 8.08218
rhand -14.2944 14.9722
rfingers 7.12502
rthumb 11.8452 -14.6727
lclavicle -4.67144e-015 1.43125e-014
lhumerus -26.4608 1.62555 85.1335
lradius 28.1075
lwrist -10.0847
lhand -11.573 24.439
lfingers 7.12502
lthumb 14.4685 53.9146
rfemur -34.7838 -2.8953 15.3518
rtibia 44.4333
rfoot -4.79028 -12.7613
rtoes 2.02086
lfemur -1.69884 -0.902569 -31.4261
ltibia 26.4087
lfoot -16.8805 3.66802
ltoes 2.88957
311
root 0.0324759 17.249 7.38374 0.500943 0.157903 7.09643
lowerback 6.76537 -0.606329 -7.53956
upperback -0.112785 -1.40061 0.136351
thorax -3.73815 -0.552193 4.51796
lowerneck -16.7464 -4.91775 -9.50428
upperneck 21.7087 -6.18915 7.66968
head 10.2413 -2.77621 3.44181
rclavicle 9.44227e-016 -3.97569e-015
rhumerus -35.0289 -19.7254 -76.5145
rradius 29.4701
rwrist 8.33683
rhand -14.4169 15.1156
rfingers 7.12502
rthumb 11.7271 -14.5362
lclavicle 9.44227e-016 -3.97569e-015
lhumerus -26.1796 0.960848 85.3065
lradius 28.816
lwrist -9.41958
lhand -11.7402 24.6066
lfingers 7.12502
lthumb 14.3074 54.0937
rfemur -34.4627 -2.57822 15.1051
rtibia 40.7672
rfoot -3.30955 -12.969
rtoes 1.75615
lfemur -0.674454 -0.750064 -31.3777
ltibia 25.5865
lfoot -17.0803 3.61953
ltoes 2.81552
312
root 0.0122416 17.2452 7.56408 0.657625 0.410594 7.10942
lowerback 6.51061 -0.757277 -7.71598
upperback 0.0818595 -1.5823 0.185852
thorax -3.36082 -0.659683 4.67599
lowerneck -17.2075 -4.90259 -9.48597
upperneck 21.6573 -6.14561 7.74705
head 10.308 -2.73514 3.46683
rclavicle -7.55382e-015 -2.38542e-014
rhumerus -34.7105 -20.1104 -76.4935
rradius 29.2299
rwrist 8.60229
rhand -14.4012 15.0891
rfingers 7.12502
rthumb 11.7422 -14.5618
lclavicle -7.55382e-015 -2.38542e-014
lhumerus -25.4434 0.638518 85.3575
lradius 29.3033
lwrist -9.1205
lhand -11.5669 25.1828
lfingers 7.12502
lthumb 14.4743 54.658
rfemur -34.15 -2.0532 14.8067
rtibia 36.9951
rfoot -2.31029 -13.4907
rtoes 2.48128
lfemur 0.272351 -0.539779 -31.2617
ltibia 24.7479
lfoot -17.1896 3.27761
ltoes 1.78457
313
root -0.00393848 17.2424 7.74823 0.847195 0.662568 7.24554
lowerback 6.4101 -0.883983 -7.9405
upperback 0.0815885 -1.75816 0.198851
thorax -3.27379 -0.746967 4.82799
lowerneck -17.2583 -4.87419 -9.55192
upperneck 21.4969 -6.0934 7.83175
head 10.2598 -2.7056 3.5131
rclavicle 1.87852e-014 -7.95139e-016
rhumerus -34.6845 -20.296 -76.3876
rradius 28.9084
rwrist 8.80551
rhand -14.6586 15.391
rfingers 7.12502
rthumb 11.4941 -14.2739
lclavicle 1.87852e-014 -7.95139e-016
lhumerus -25.0819 0.186573 85.4487
lradius 29.8996
lwrist -8.59762
lhand -11.4385 25.9763
lfingers 7.12502
lthumb 14.598 55.4426
rfemur -33.7646 -1.45726 14.279
rtibia 33.1657
rfoot -1.74632 -14.1001
rtoes 3.9478
lfemur 1.17407 -0.402035 -31.2957
ltibia 23.9383
lfoot -17.1937 3.01556
ltoes 1.56216
314
root -0.021431 17.2361 7.93612 0.982634 0.942908 7.41298
lowerback 6.45403 -0.987162 -8.20308
upperback -0.0500728 -1.92436 0.223757
thorax -3.40424 -0.815446 5.01948
lowerneck -17.0652 -4.83265 -9.57518
upperneck 21.3801 -6.01085 7.71982
head 10.1701 -2.68653 3.48902
rclavicle 1.3418e-014 3.18055e-015
rhumerus -34.9084 -20.5435 -76.0235
rradius 28.477
rwrist 9.22089
rhand -14.8452 16.0045
rfingers 7.12502
rthumb 11.3141 -13.6703
lclavicle 1.3418e-014 3.18055e-015
lhumerus -24.8675 -0.211269 85.5878
lradius 30.3182
lwrist -8.16471
lhand -11.9118 25.8979
lfingers 7.12502
lthumb 14.142 55.3966
rfemur -33.1531 -0.905265 13.7169
rtibia 29.3115
rfoot -1.35131 -14.5305
rtoes 3.56826
lfemur 2.12841 -0.34012 -31.3505
ltibia 23.198
lfoot -17.3579 2.77403
ltoes 0.920016
315
root -0.0406333 17.2282 8.12333 1.08319 1.28262 7.45423
lowerback 6.47361 -1.13185 -8.40202
upperback -0.131805 -2.13454 0.311175
thorax -3.46027 -0.91071 5.24307
lowerneck -16.9371 -4.78931 -9.56174
upperneck 21.2626 -5.93068 7.6087
head 10.0919 -2.66376 3.45806
rclavicle -1.04362e-015 -6.36111e-015
rhumerus -35.1496 -20.8369 -75.6809
rradius 28.3033
rwrist 9.64936
rhand -14.7989 16.0932
rfingers 7.12502
rthumb 11.3587 -13.5792
lclavicle -1.04362e-015 -6.36111e-015
lhumerus -24.6125 -0.347635 85.6805
lradius 30.6844
lwrist -8.02368
lhand -12.2142 25.2044
lfingers 7.12502
lthumb 13.8506 54.7232
rfemur -32.3267 -0.13498 13.157
rtibia 25.4602
rfoot -1.69627 -15.0092
rtoes 2.96471
lfemur 3.11959 -0.429056 -31.247
ltibia 22.5238
lfoot -17.5301 2.5338
ltoes -0.127879
316
root -0.0623216 17.2167 8.30981 1.09401 1.52909 7.45265
lowerback 6.45244 -1.22553 -8.56185
upperback -0.0620344 -2.26348 0.376938
thorax -3.34712 -0.978956 5.41047
lowerneck -17.0921 -4.80546 -9.54695
upperneck 21.2303 -5.94214 7.61406
head 10.1104 -2.66365 3.45352
rclavicle 1.03368e-014 -1.19271e-014
rhumerus -35.1456 -21.0524 -75.5588
rradius 28.1244
rwrist 9.8123
rhand -14.9308 16.0446
rfingers 7.12502
rthumb 11.2314 -13.6347
lclavicle 1.03368e-014 -1.19271e-014
lhumerus -24.2859 -0.719289 85.7415
lradius 31.2951
lwrist -7.66408
lhand -12.2349 25.1832
lfingers 7.12502
lthumb 13.8306 54.7033
rfemur -31.3661 0.847013 12.5544
rtibia 21.6794
rfoot -2.70376 -15.2625
rtoes 2.91527
lfemur 4.11176 -0.624095 -31.1152
ltibia 21.9431
lfoot -17.6175 2.37103
ltoes -0.543411
317
root -0.0834685 17.2044 8.48949 1.14049 1.73791 7.39693
lowerback 6.42801 -1.24933 -8.52489
upperback 0.00118662 -2.28682 0.379871
thorax -3.26454 -0.996998 5.39219
lowerneck -17.261 -4.90081 -9.49746
upperneck 21.2568 -6.05699 7.54004
head 10.159 -2.71696 3.39994
rclavicle -3.93097e-014 -2.70347e-014
rhumerus -35.15 -21.7107 -75.3103
rradius 27.827
rwrist 10.2185
rhand -15.0705 16.0973
rfingers 7.12502
rthumb 11.0967 -13.5893
lclavicle -3.93097e-014 -2.70347e-014
lhumerus -23.8875 -1.28866 85.796
lradius 31.6841
lwrist -7.59331
lhand -12.1481 25.6076
lfingers 7.12502
lthumb 13.9143 55.1221
rfemur -30.459 1.91797 11.9728
rtibia 17.9746
rfoot -3.07202 -15.1577
rtoes 2.19198
lfemur 4.92528 -0.844516 -30.9215
ltibia 21.4961
lfoot -17.6574 2.18958
ltoes -1.64941
318
root -0.104454 17.1955 8.6718 1.19684 2.22203 7.36581
lowerback 6.48664 -1.34368 -8.44347
upperback 0.0153354 -2.41184 0.360415
thorax -3.26725 -1.06087 5.33755
lowerneck -17.2556 -5.01264 -9.49468
upperneck 21.1392 -6.20161 7.51308
head 10.1292 -2.78612 3.36646
rclavicle -1.99282e-014 1.74931e-014
rhumerus -35.352 -22.1631 -75.0736
rradius 27.7387
rwrist 10.3297
rhand -15.1487 16.1955
rfingers 7.12502
rthumb 11.0213 -13.4952
lclavicle -1.99282e-014 1.74931e-014
lhumerus -23.5875 -1.92797 85.861
lradius 32.087
lwrist -7.4757
lhand -11.9198 26.0132
lfingers 7.12502
lthumb 14.1343 55.5124
rfemur -29.4232 2.95012 11.2419
rtibia 14.4421
rfoot -3.02023 -15.1084
rtoes 1.75021
lfemur 5.74379 -1.18524 -30.6938
ltibia 21.1484
lfoot -17.7859 1.96298
ltoes -3.39465
319
root -0.12592 17.1884 8.85815 1.21293 2.71431 7.0465
lowerback 6.41998 -1.51965 -8.19777
upperback 0.13186 -2.61161 0.488397
thorax -3.08116 -1.17544 5.34337
lowerneck -17.1084 -4.97776 -9.3791
upperneck 20.6662 -6.1401 7.39304
head 9.91895 -2.76443 3.30841
rclavicle -7.95139e-016 -1.27222e-014
rhumerus -35.3135 -22.3413 -74.9315
rradius 27.5588
rwrist 10.4962
rhand -15.106 16.3499
rfingers 7.12502
rthumb 11.0625 -13.3386
lclavicle -7.95139e-016 -1.27222e-014
lhumerus -23.1322 -2.08483 85.8659
lradius 32.4586
lwrist -7.2618
lhand -11.7719 26.0886
lfingers 7.12502
lthumb 14.2768 55.5778
rfemur -28.3396 3.86552 10.901
rtibia 11.2871
rfoot -3.00224 -15.0183
rtoes 1.48171
lfemur 6.57937 -1.60904 -30.1583
ltibia 20.8642
lfoot -17.9964 1.78093
ltoes -6.48932
320
root -0.140978 17.1755 9.04659 1.13087 3.06883 6.941
lowerback 6.38785 -1.68168 -8.16065
upperback 0.226533 -2.81337 0.609474
thorax -2.92883 -1.28563 5.46057
lowerneck -17.0426 -4.89508 -9.50225
upperneck 20.4735 -5.98842 7.40982
head 9.82868 -2.70328 3.35519
rclavicle 2.83765e-014 -7.95139e-015
rhumerus -35.3365 -22.5128 -74.6514
rradius 27.2925
rwrist 10.8137
rhand -15.087 15.7297
rfingers 7.12502
rthumb 11.0809 -13.9578
lclavicle 2.83765e-014 -7.95139e-015
lhumerus -22.8599 -2.08532 85.9449
lradius 32.8184
lwrist -7.19052
lhand -11.9966 25.8628
lfingers 7.12502
lthumb 14.0603 55.3672
rfemur -27.3483 3.40981 11.0482
rtibia 9.00223
rfoot -3.13328 -13.4188
rtoes 0.539303
lfemur 7.47543 -1.82245 -29.9052
ltibia 20.6003
lfoot -18.0164 1.3356
ltoes -9.83106
321
root -0.155701 17.1578 9.23847 1.02986 3.50324 7.07803
lowerback 6.46846 -1.82143 -8.3261
upperback 0.229374 -3.01754 0.646124
thorax -2.92959 -1.38485 5.61072
lowerneck -17.1179 -4.89929 -9.73328
upperneck 20.6781 -5.95056 7.47484
head 9.92177 -2.69568 3.42436
rclavicle 3.96575e-014 5.56597e-015
rhumerus -35.5916 -22.8163 -74.2307
rradius 27.0116
rwrist 11.1744
rhand -15.2871 14.7623
rfingers 7.12502
rthumb 10.8878 -14.9354
lclavicle 3.96575e-014 5.56597e-015
lhumerus -22.873 -2.33258 86.0791
lradius 33.3023
lwrist -7.04843
lhand -12.2718 25.7883
lfingers 7.12502
lthumb 13.7951 55.3109
rfemur -26.6996 2.85924 10.9247
rtibia 7.97077
rfoot -3.70258 -12.1807
rtoes -0.685598
lfemur 8.34203 -2.12114 -29.9342
ltibia 20.4663
lfoot -17.702 0.64806
ltoes -10.8705
322
root -0.170065 17.1381 9.43429 0.906496 3.84723 7.19809
lowerback 6.44006 -1.87908 -8.39009
upperback 0.383515 -3.09064 0.599407
thorax -2.73993 -1.43435 5.59661
lowerneck -17.5317 -5.01784 -9.69811
upperneck 20.9448 -6.07861 7.38168
head 10.1027 -2.75387 3.36492
rclavicle -1.23743e-014 -1.59028e-014
rhumerus -35.6225 -23.2755 -73.9943
rradius 26.724
rwrist 11.2986
rhand -15.3835 14.1803
rfingers 7.12502
rthumb 10.7949 -15.5223
lclavicle -1.23743e-014 -1.59028e-014
lhumerus -22.4915 -2.6776 86.1151
lradius 33.5456
lwrist -6.89121
lhand -12.3297 25.529
lfingers 7.12502
lthumb 13.7393 55.0554
rfemur -26.5378 2.42509 10.8574
rtibia 8.37138
rfoot -4.20893 -11.3136
rtoes -3.46005
lfemur 9.1696 -2.41034 -29.943
ltibia 20.5064
lfoot -17.3915 0.153482
ltoes -11.1873
323
root -0.186194 17.1276 9.6234 0.838274 4.05257 7.14738
lowerback 6.52097 -1.89053 -8.29807
upperback 0.46586 -3.10267 0.605645
thorax -2.70157 -1.44578 5.55373
lowerneck -17.7607 -5.03816 -9.67988
upperneck 20.9807 -6.08966 7.37397
head 10.1587 -2.75327 3.35513
rclavicle -2.07233e-014 3.97569e-015
rhumerus -35.6618 -23.4221 -73.8487
rradius 26.5093
rwrist 11.2019
rhand -15.3888 13.8281
rfingers 7.12502
rthumb 10.7897 -15.8747
lclavicle -2.07233e-014 3.97569e-015
lhumerus -22.0338 -2.91435 86.1421
lradius 33.6432
lwrist -6.9359
lhand -12.2179 25.2404
lfingers 7.12502
lthumb 13.847 54.7594
rfemur -26.7968 2.16005 11.0291
rtibia 9.73737
rfoot -4.12216 -10.4268
rtoes -4.15677
lfemur 9.76271 -2.90358 -29.8493
ltibia 20.7629
lfoot -17.1119 -0.146133
ltoes -11.7748
324
root -0.209194 17.116 9.81019 0.819061 4.06928 6.89402
lowerback 6.63638 -1.84995 -8.13335
upperback 0.441885 -3.04478 0.714497
thorax -2.80279 -1.41312 5.57783
lowerneck -17.5726 -5.0267 -9.79502
upperneck 20.6559 -6.07598 7.51879
head 10.015 -2.74299 3.42601
rclavicle 4.30866e-014 -1.51076e-014
rhumerus -35.7813 -23.6999 -73.5116
rradius 26.1699
rwrist 11.4871
rhand -15.501 14.058
rfingers 7.12502
rthumb 10.6815 -15.6504
lclavicle 4.30866e-014 -1.51076e-014
lhumerus -21.7384 -3.12633 86.2249
lradius 33.6821
lwrist -6.971
lhand -12.4027 24.7455
lfingers 7.12502
lthumb 13.6689 54.2767
rfemur -27.3845 2.10926 11.4635
rtibia 11.7345
rfoot -3.79101 -9.55023
rtoes -4.31422
lfemur 10.2074 -3.38709 -29.5548
ltibia 21.1701
lfoot -16.6522 -0.653089
ltoes -11.5912
